#!OML:ASF E:\Steps\Project 1\Capture day 1\Session 2\Subject.ASF
:FULLY-SPECIFIED
:DEGREES
643
root 12.2345 17.9926 7.97149 -153.26 1.05164 177.161
lowerback -31.0672 -4.76447 -6.12561
upperback -3.47633 -2.99241 0.591587
thorax 12.6431 -1.1499 2.87639
lowerneck -2.06738 -0.837469 -1.47504
upperneck 17.6205 -0.485862 3.08527
head 5.65913 0.294271 1.2302
rclavicle -2.13818e-014 4.57205e-015
rhumerus -42.382 -17.6385 -77.8178
rradius 29.1143
rwrist -0.657304
rhand -10.1608 -49.7325
rfingers 7.12502
rthumb 15.8288 -439.105
lclavicle -2.13818e-014 4.57205e-015
lhumerus -28.7966 1.48424 84.1469
lradius 19.788
lwrist -5.85139
lhand -22.8393 -13.4882
lfingers 7.12502
lthumb 3.59826 16.4612
rfemur -24.4383 7.94997 19.0694
rtibia 10.8953
rfoot -21.7204 -8.77782
rtoes -33.3076
lfemur -22.8787 -3.96239 -24.2445
ltibia 5.47202
lfoot -6.41699 -6.93051
ltoes -33.8787
644
root 12.2314 17.9911 7.96913 -153.228 0.823406 177.197
lowerback -31.1261 -4.81412 -6.1432
upperback -3.5163 -3.03016 0.585354
thorax 12.6266 -1.15919 2.86372
lowerneck -2.01356 -0.945897 -1.4743
upperneck 17.7484 -0.623562 3.12975
head 5.69339 0.23929 1.23839
rclavicle -1.07592e-014 5.56597e-015
rhumerus -42.3855 -17.5356 -77.8309
rradius 29.0474
rwrist -0.799639
rhand -10.1769 -49.5492
rfingers 7.12502
rthumb 15.8133 -438.923
lclavicle -1.07592e-014 5.56597e-015
lhumerus -28.9114 1.7412 84.0553
lradius 19.7372
lwrist -5.89753
lhand -22.6216 -13.2604
lfingers 7.12502
lthumb 3.8085 16.6853
rfemur -24.3809 7.88422 19.1367
rtibia 10.7876
rfoot -21.7291 -8.84789
rtoes -33.2616
lfemur -22.9413 -4.09935 -24.1462
ltibia 5.53396
lfoot -6.45529 -6.99187
ltoes -34.5047
645
root 12.2293 17.9907 7.96429 -153.271 0.646542 177.201
lowerback -31.3234 -3.49669 -6.99018
upperback -3.33595 -3.39751 0.458869
thorax 12.8899 -2.38299 2.80569
lowerneck -2.06463 -0.949289 -1.39794
upperneck 17.6599 -0.633558 3.04929
head 5.67427 0.227873 1.19852
rclavicle -1.28837e-014 4.77083e-015
rhumerus -41.9768 -17.641 -77.9285
rradius 28.8272
rwrist -0.719656
rhand -10.136 -50.2168
rfingers 7.12502
rthumb 15.8526 -439.588
lclavicle -1.28837e-014 4.77083e-015
lhumerus -28.6394 1.82996 83.9431
lradius 19.6316
lwrist -5.70839
lhand -22.2104 -12.8187
lfingers 7.12502
lthumb 4.2056 17.1195
rfemur -24.2422 7.82389 19.1826
rtibia 10.6922
rfoot -21.6876 -8.95052
rtoes -33.4423
lfemur -22.8937 -4.18657 -24.107
ltibia 5.54542
lfoot -6.43946 -7.07822
ltoes -34.5184
646
root 12.2257 17.9912 7.95577 -153.403 0.585549 177.211
lowerback -31.6206 -3.47976 -6.97282
upperback -3.06299 -3.29389 0.35854
thorax 13.3119 -2.32925 2.71128
lowerneck -2.21533 -0.99971 -1.28595
upperneck 17.5099 -0.726965 2.98739
head 5.65473 0.173932 1.15307
rclavicle 8.94531e-015 3.97569e-016
rhumerus -41.4645 -17.8275 -78.0614
rradius 28.5495
rwrist -0.634308
rhand -10.2227 -51.039
rfingers 7.12502
rthumb 15.7692 -440.417
lclavicle 8.94531e-015 3.97569e-016
lhumerus -28.2629 1.866 83.834
lradius 19.3324
lwrist -5.85839
lhand -22.3331 -13.0953
lfingers 7.12502
lthumb 4.08712 16.8453
rfemur -24.0087 7.77676 19.2251
rtibia 10.6025
rfoot -21.5991 -8.97298
rtoes -33.1998
lfemur -22.6844 -4.25016 -24.0905
ltibia 5.47441
lfoot -6.30072 -7.06745
ltoes -33.9494
647
root 12.2224 17.9916 7.94788 -153.543 0.531621 177.239
lowerback -31.6972 -3.42466 -6.96485
upperback -2.96088 -3.1873 0.27114
thorax 13.4452 -2.27693 2.65105
lowerneck -2.22919 -1.09693 -1.30957
upperneck 17.4165 -0.877234 3.0495
head 5.63156 0.0987575 1.16724
rclavicle 8.10048e-015 1.09332e-014
rhumerus -41.3184 -17.9528 -78.0744
rradius 28.4257
rwrist -0.587131
rhand -10.3055 -50.8056
rfingers 7.12502
rthumb 15.6895 -440.189
lclavicle 8.10048e-015 1.09332e-014
lhumerus -28.1791 1.93504 83.7472
lradius 19.0712
lwrist -6.09384
lhand -22.5741 -13.2271
lfingers 7.12502
lthumb 3.85439 16.7178
rfemur -23.8256 7.72235 19.2896
rtibia 10.6238
rfoot -21.5734 -8.90956
rtoes -32.7102
lfemur -22.4704 -4.29265 -24.0573
ltibia 5.41602
lfoot -6.2593 -7.00781
ltoes -34.0004
648
root 12.2195 17.991 7.94094 -153.665 0.548124 177.219
lowerback -31.6539 -3.36901 -7.041
upperback -2.9975 -3.08977 0.180379
thorax 13.3701 -2.23693 2.63565
lowerneck -2.05602 -1.11434 -1.31998
upperneck 17.373 -0.894484 3.07556
head 5.58882 0.093921 1.17635
rclavicle 3.04389e-014 -1.23246e-014
rhumerus -41.4624 -18.0663 -77.9741
rradius 28.3784
rwrist -0.482885
rhand -10.3135 -50.1552
rfingers 7.12502
rthumb 15.6817 -439.54
lclavicle 3.04389e-014 -1.23246e-014
lhumerus -28.3345 2.19085 83.5824
lradius 18.8848
lwrist -6.35303
lhand -22.5983 -12.9356
lfingers 7.12502
lthumb 3.83103 17.0097
rfemur -23.7168 7.65405 19.2816
rtibia 10.7251
rfoot -21.5656 -8.78587
rtoes -32.4433
lfemur -22.261 -4.33657 -24.0977
ltibia 5.3318
lfoot -6.30034 -6.96025
ltoes -34.2656
649
root 12.217 17.9893 7.93542 -153.73 0.54796 177.218
lowerback -31.6784 -3.33545 -7.07082
upperback -2.99629 -3.02551 0.0849728
thorax 13.3692 -2.20963 2.573
lowerneck -2.07485 -1.14658 -1.16807
upperneck 17.4898 -0.939239 3.08685
head 5.62886 0.0899005 1.15349
rclavicle 1.33186e-014 2.38542e-015
rhumerus -41.4511 -18.1373 -77.9882
rradius 28.2604
rwrist -0.377683
rhand -10.3067 -50.0364
rfingers 7.12502
rthumb 15.6882 -439.42
lclavicle 1.33186e-014 2.38542e-015
lhumerus -28.4391 2.54527 83.3414
lradius 18.7728
lwrist -6.72173
lhand -22.6306 -13.0429
lfingers 7.12502
lthumb 3.79986 16.903
rfemur -23.6202 7.59764 19.2926
rtibia 10.718
rfoot -21.4448 -8.75565
rtoes -32.211
lfemur -22.1239 -4.34447 -24.1122
ltibia 5.25313
lfoot -6.28555 -6.99807
ltoes -34.3782
